<?xml version="1.0" encoding="UTF-8" standalone="no"?>
<!-- Created with Inkscape (http://www.inkscape.org/) -->

<svg
   width="72"
   height="72"
   id="svg7055"
   version="1.1"
   inkscape:version="1.4.3 (0d15f75, 2025-12-25)"
   sodipodi:docname="ic_launcher_notepad_search.svg"
   inkscape:export-filename="C:\Users\sawai\Desktop\ic_launcher_notepad_search-192.png"
   inkscape:export-xdpi="240"
   inkscape:export-ydpi="240"
   style="display:inline"
   xmlns:inkscape="http://www.inkscape.org/namespaces/inkscape"
   xmlns:sodipodi="http://sodipodi.sourceforge.net/DTD/sodipodi-0.dtd"
   xmlns:xlink="http://www.w3.org/1999/xlink"
   xmlns="http://www.w3.org/2000/svg"
   xmlns:svg="http://www.w3.org/2000/svg"
   xmlns:rdf="http://www.w3.org/1999/02/22-rdf-syntax-ns#"
   xmlns:cc="http://creativecommons.org/ns#"
   xmlns:dc="http://purl.org/dc/elements/1.1/">
  <defs
     id="defs7057">
    <linearGradient
       id="linearGradient3927">
      <stop
         style="stop-color:#c000ae;stop-opacity:1;"
         offset="0"
         id="stop3930" />
      <stop
         id="stop3936"
         offset="0.30000001"
         style="stop-color:#800074;stop-opacity:1;" />
      <stop
         style="stop-color:#68005f;stop-opacity:1;"
         offset="1"
         id="stop3932" />
    </linearGradient>
    <linearGradient
       id="linearGradient3915">
      <stop
         style="stop-color:#ffff80;stop-opacity:1;"
         offset="0"
         id="stop3917" />
      <stop
         id="stop3925"
         offset="0.80000001"
         style="stop-color:#ffff66;stop-opacity:1;" />
      <stop
         style="stop-color:#fefe00;stop-opacity:1;"
         offset="1"
         id="stop3919" />
    </linearGradient>
    <linearGradient
       id="linearGradient3898">
      <stop
         style="stop-color:#80001a;stop-opacity:1;"
         offset="0"
         id="stop3900" />
      <stop
         style="stop-color:#90001e;stop-opacity:1;"
         offset="1"
         id="stop3902" />
    </linearGradient>
    <linearGradient
       id="linearGradient4227">
      <stop
         style="stop-color:#000000;stop-opacity:1;"
         offset="0"
         id="stop4229" />
      <stop
         id="stop4233"
         offset="0.30000001"
         style="stop-color:#1e1e1e;stop-opacity:0.78431374;" />
      <stop
         style="stop-color:#ffffff;stop-opacity:1;"
         offset="1"
         id="stop4231" />
    </linearGradient>
    <linearGradient
       id="linearGradient3925">
      <stop
         id="stop3927"
         offset="0"
         style="stop-color:#9bc200;stop-opacity:1;" />
      <stop
         id="stop3929"
         offset="1"
         style="stop-color:#88c200;stop-opacity:1;" />
    </linearGradient>
    <linearGradient
       id="linearGradient3875">
      <stop
         style="stop-color:#ffffff;stop-opacity:1;"
         offset="0"
         id="stop3877" />
      <stop
         style="stop-color:#b2b2b2;stop-opacity:1;"
         offset="1"
         id="stop3879" />
    </linearGradient>
    <linearGradient
       id="linearGradient3844">
      <stop
         id="stop3846"
         offset="0"
         style="stop-color:#666666;stop-opacity:1;" />
      <stop
         id="stop3848"
         offset="1"
         style="stop-color:#1a1a1a;stop-opacity:1;" />
    </linearGradient>
    <linearGradient
       inkscape:collect="always"
       xlink:href="#linearGradient3844"
       id="linearGradient3842"
       x1="30"
       y1="35"
       x2="30"
       y2="59"
       gradientUnits="userSpaceOnUse" />
    <linearGradient
       inkscape:collect="always"
       xlink:href="#linearGradient3844"
       id="linearGradient3862"
       gradientUnits="userSpaceOnUse"
       x1="30"
       y1="35"
       x2="30"
       y2="59" />
    <linearGradient
       inkscape:collect="always"
       xlink:href="#linearGradient3875"
       id="linearGradient3873"
       x1="36"
       y1="6"
       x2="36"
       y2="66"
       gradientUnits="userSpaceOnUse" />
    <linearGradient
       inkscape:collect="always"
       xlink:href="#linearGradient3875"
       id="linearGradient3882"
       gradientUnits="userSpaceOnUse"
       x1="36"
       y1="6"
       x2="36"
       y2="66" />
    <linearGradient
       inkscape:collect="always"
       xlink:href="#linearGradient3875"
       id="linearGradient3913"
       gradientUnits="userSpaceOnUse"
       x1="36"
       y1="6"
       x2="36"
       y2="66" />
    <linearGradient
       inkscape:collect="always"
       xlink:href="#linearGradient3875"
       id="linearGradient3917"
       gradientUnits="userSpaceOnUse"
       x1="36"
       y1="6"
       x2="36"
       y2="66" />
    <linearGradient
       inkscape:collect="always"
       xlink:href="#linearGradient3844"
       id="linearGradient3924"
       gradientUnits="userSpaceOnUse"
       x1="30"
       y1="35"
       x2="30"
       y2="59" />
    <linearGradient
       inkscape:collect="always"
       xlink:href="#linearGradient3844"
       id="linearGradient3855"
       x1="20"
       y1="7"
       x2="20"
       y2="62"
       gradientUnits="userSpaceOnUse" />
    <linearGradient
       inkscape:collect="always"
       xlink:href="#linearGradient3844"
       id="linearGradient3863"
       x1="55"
       y1="7"
       x2="55"
       y2="17"
       gradientUnits="userSpaceOnUse" />
    <linearGradient
       inkscape:collect="always"
       xlink:href="#linearGradient3844"
       id="linearGradient3880"
       x1="35"
       y1="12"
       x2="35"
       y2="16"
       gradientUnits="userSpaceOnUse" />
    <linearGradient
       inkscape:collect="always"
       xlink:href="#linearGradient3844"
       id="linearGradient3889"
       x1="30"
       y1="12"
       x2="30"
       y2="16"
       gradientUnits="userSpaceOnUse" />
    <linearGradient
       inkscape:collect="always"
       xlink:href="#linearGradient3844"
       id="linearGradient3897"
       x1="30"
       y1="12"
       x2="30"
       y2="16"
       gradientUnits="userSpaceOnUse" />
    <linearGradient
       inkscape:collect="always"
       xlink:href="#linearGradient3844"
       id="linearGradient3905"
       x1="17"
       y1="12"
       x2="17"
       y2="16"
       gradientUnits="userSpaceOnUse" />
    <linearGradient
       inkscape:collect="always"
       xlink:href="#linearGradient3844"
       id="linearGradient3910"
       gradientUnits="userSpaceOnUse"
       x1="30"
       y1="35"
       x2="30"
       y2="59" />
    <linearGradient
       inkscape:collect="always"
       xlink:href="#linearGradient3844"
       id="linearGradient3914"
       gradientUnits="userSpaceOnUse"
       x1="30"
       y1="35"
       x2="30"
       y2="59"
       gradientTransform="translate(14,6.999989)" />
    <linearGradient
       inkscape:collect="always"
       xlink:href="#linearGradient3925"
       id="linearGradient3937"
       x1="47"
       y1="53.999992"
       x2="64"
       y2="53.999992"
       gradientUnits="userSpaceOnUse" />
    <linearGradient
       inkscape:collect="always"
       xlink:href="#linearGradient3844"
       id="linearGradient3943"
       gradientUnits="userSpaceOnUse"
       gradientTransform="translate(14,6.999989)"
       x1="30"
       y1="35"
       x2="30"
       y2="59" />
    <linearGradient
       inkscape:collect="always"
       xlink:href="#linearGradient3925"
       id="linearGradient3945"
       gradientUnits="userSpaceOnUse"
       x1="47"
       y1="53.999992"
       x2="64"
       y2="53.999992" />
    <mask
       maskUnits="userSpaceOnUse"
       id="mask3907">
      <path
         style="fill:#ffffff;fill-opacity:1;stroke:none"
         d="M 49.71875,32 C 48.769036,32 48,32.769036 48,33.71875 l 0,2.4375 C 41.873576,37.035344 37.035344,41.873576 36.15625,48 l -2.4375,0 C 32.769036,48 32,48.769036 32,49.71875 l 0,0.5625 C 32,51.230964 32.769036,52 33.71875,52 l 2.4375,0 C 37.035344,58.126424 41.873576,62.964656 48,63.84375 l 0,2.4375 C 48,67.230964 48.769036,68 49.71875,68 l 0.5625,0 C 51.230964,68 52,67.230964 52,66.28125 l 0,-2.4375 C 58.126424,62.964656 62.964656,58.126424 63.84375,52 l 2.4375,0 C 67.230964,52 68,51.230964 68,50.28125 l 0,-0.5625 C 68,48.769036 67.230964,48 66.28125,48 l -2.4375,0 C 62.964656,41.873576 58.126424,37.035344 52,36.15625 l 0,-2.4375 C 52,32.769036 51.230964,32 50.28125,32 l -0.5625,0 z M 50,40 c 5.695436,0 10.3125,4.477153 10.3125,10 0,5.522847 -4.617064,10 -10.3125,10 -5.695436,0 -10.3125,-4.477153 -10.3125,-10 0,-5.522847 4.617064,-10 10.3125,-10 z"
         id="path3909"
         inkscape:connector-curvature="0" />
    </mask>
    <linearGradient
       inkscape:collect="always"
       xlink:href="#linearGradient4227"
       id="linearGradient4221"
       x1="51"
       y1="39.5"
       x2="51"
       y2="60.5"
       gradientUnits="userSpaceOnUse" />
    <mask
       maskUnits="userSpaceOnUse"
       id="mask4239">
      <path
         d="m 58,50 a 7,7 0 1 1 -14,0 7,7 0 1 1 14,0 z"
         sodipodi:ry="7"
         sodipodi:rx="7"
         sodipodi:cy="50"
         sodipodi:cx="51"
         id="path4241"
         style="fill:#ffffff;fill-opacity:1;stroke:none"
         sodipodi:type="arc" />
    </mask>
    <mask
       maskUnits="userSpaceOnUse"
       id="mask4244">
      <path
         inkscape:connector-curvature="0"
         id="path4246"
         d="M 49.71875,31 C 48.769036,31 48,31.769036 48,32.71875 l 0,2.4375 C 41.873576,36.035344 37.035344,40.873576 36.15625,47 l -2.4375,0 C 32.769036,47 32,47.769036 32,48.71875 l 0,0.5625 C 32,50.230964 32.769036,51 33.71875,51 l 2.4375,0 C 37.035344,57.126424 41.873576,61.964656 48,62.84375 l 0,2.4375 C 48,66.230964 48.769036,67 49.71875,67 l 0.5625,0 C 51.230964,67 52,66.230964 52,65.28125 l 0,-2.4375 C 58.126424,61.964656 62.964656,57.126424 63.84375,51 l 2.4375,0 C 67.230964,51 68,50.230964 68,49.28125 l 0,-0.5625 C 68,47.769036 67.230964,47 66.28125,47 l -2.4375,0 C 62.964656,40.873576 58.126424,36.035344 52,35.15625 l 0,-2.4375 C 52,31.769036 51.230964,31 50.28125,31 l -0.5625,0 z M 50,39 c 5.695436,0 10.3125,4.477153 10.3125,10 0,5.522847 -4.617064,10 -10.3125,10 -5.695436,0 -10.3125,-4.477153 -10.3125,-10 0,-5.522847 4.617064,-10 10.3125,-10 z"
         style="fill:#ffffff;fill-opacity:1;stroke:none" />
    </mask>
    <radialGradient
       inkscape:collect="always"
       xlink:href="#linearGradient3915"
       id="radialGradient3923"
       cx="36.5"
       cy="37.3125"
       fx="36.5"
       fy="37.3125"
       r="23.5"
       gradientTransform="matrix(1.0212766,0,0,1.0505319,-1.2765957,-1.8854721)"
       gradientUnits="userSpaceOnUse" />
    <linearGradient
       inkscape:collect="always"
       xlink:href="#linearGradient3927"
       id="linearGradient3948"
       x1="38"
       y1="11"
       x2="38"
       y2="21"
       gradientUnits="userSpaceOnUse" />
    <filter
       inkscape:collect="always"
       id="filter3859"
       x="-0.023990789"
       y="-0.023990789"
       width="1.0479816"
       height="1.0479816">
      <feGaussianBlur
         inkscape:collect="always"
         stdDeviation="0.2084375"
         id="feGaussianBlur3861" />
    </filter>
  </defs>
  <sodipodi:namedview
     id="base"
     pagecolor="#ffffff"
     bordercolor="#666666"
     borderopacity="1.0"
     inkscape:pageopacity="0.0"
     inkscape:pageshadow="2"
     inkscape:zoom="8.534386"
     inkscape:cx="32.222588"
     inkscape:cy="24.43058"
     inkscape:document-units="px"
     inkscape:current-layer="layer4"
     showgrid="true"
     showguides="false"
     inkscape:guide-bbox="true"
     inkscape:window-width="2560"
     inkscape:window-height="1369"
     inkscape:window-x="-8"
     inkscape:window-y="-8"
     inkscape:window-maximized="1"
     inkscape:showpageshadow="2"
     inkscape:pagecheckerboard="0"
     inkscape:deskcolor="#d1d1d1">
    <inkscape:grid
       type="xygrid"
       id="grid7074"
       empspacing="5"
       visible="true"
       enabled="true"
       snapvisiblegridlinesonly="true"
       originx="0"
       originy="0"
       spacingy="1"
       spacingx="1"
       units="px" />
    <sodipodi:guide
       orientation="1,0"
       position="6,58"
       id="guide7076"
       inkscape:locked="false" />
    <sodipodi:guide
       orientation="1,0"
       position="66.007156,46.877392"
       id="guide7078"
       inkscape:locked="false" />
    <sodipodi:guide
       orientation="0,1"
       position="58,66"
       id="guide7080"
       inkscape:locked="false" />
    <sodipodi:guide
       orientation="0,1"
       position="54,6"
       id="guide7082"
       inkscape:locked="false" />
    <sodipodi:guide
       orientation="0,1"
       position="38,36"
       id="guide7084"
       inkscape:locked="false" />
    <sodipodi:guide
       orientation="1,0"
       position="36,47"
       id="guide7086"
       inkscape:locked="false" />
  </sodipodi:namedview>
  <metadata
     id="metadata7060">
    <rdf:RDF>
      <cc:Work
         rdf:about="">
        <dc:format>image/svg+xml</dc:format>
        <dc:type
           rdf:resource="http://purl.org/dc/dcmitype/StillImage" />
        <dc:title />
      </cc:Work>
    </rdf:RDF>
  </metadata>
  <g
     inkscape:groupmode="layer"
     id="layer4"
     inkscape:label="paper"
     style="display:inline">
    <rect
       style="fill:url(#radialGradient3923);fill-opacity:1;stroke:none;stroke-width:1.01058"
       id="rect3833"
       width="48"
       height="49.375"
       x="12"
       y="12.625"
       ry="1" />
  </g>
  <g
     inkscape:groupmode="layer"
     id="layer6"
     inkscape:label="lines"
     style="display:inline">
    <path
       style="fill:#12b27d;fill-opacity:0.8;stroke:none"
       d="m 16,32 0,1 41,0 0,-1 -41,0 z m 0,10 0,1 41,0 0,-1 -41,0 z m 0,10 0,1 41,0 0,-1 -41,0 z"
       id="rect3871"
       inkscape:connector-curvature="0" />
  </g>
  <g
     inkscape:groupmode="layer"
     id="layer5"
     inkscape:label="binder"
     style="display:inline">
    <rect
       style="fill:url(#linearGradient3948);fill-opacity:1;stroke:none"
       id="rect3836"
       width="48"
       height="10"
       x="12"
       y="11"
       ry="1" />
  </g>
  <g
     inkscape:groupmode="layer"
     id="layer1"
     inkscape:label="add"
     style="display:none">
    <path
       style="fill:#b2124e;fill-opacity:1;stroke:#ffffff;stroke-width:2;stroke-miterlimit:4;stroke-opacity:1;stroke-dasharray:none;display:inline"
       d="m 34.193746,30.033929 c -0.496031,0 -0.902358,0.299498 -0.902358,0.671521 l 0,8.729783 -8.729783,0 c -0.372023,0 -0.671521,0.406327 -0.671521,0.902358 l 0,3.56746 c 0,0.49603 0.299498,0.902357 0.671521,0.902357 l 8.729783,0 0,8.729784 c 0,0.372023 0.406327,0.671521 0.902358,0.671521 l 3.56746,0 c 0.49603,0 0.902357,-0.299498 0.902357,-0.671521 l 0,-8.729784 8.729784,0 c 0.372023,0 0.671521,-0.406327 0.671521,-0.902357 l 0,-3.56746 c 0,-0.496031 -0.299498,-0.902358 -0.671521,-0.902358 l -8.729784,0 0,-8.729783 c 0,-0.372023 -0.406327,-0.671521 -0.902357,-0.671521 l -3.56746,0 z"
       id="rect3801"
       inkscape:connector-curvature="0" />
  </g>
  <g
     inkscape:label="add circle"
     id="g3837"
     inkscape:groupmode="layer"
     style="display:none">
    <path
       sodipodi:type="arc"
       style="fill:#ffffff;fill-opacity:1;stroke:#b2b2b2;stroke-width:0.99973202;stroke-miterlimit:4;stroke-opacity:1;stroke-dasharray:none;filter:url(#filter3859)"
       id="path3857"
       sodipodi:cx="91.84375"
       sodipodi:cy="50.84375"
       sodipodi:rx="20.84375"
       sodipodi:ry="20.84375"
       d="m 112.6875,50.84375 a 20.84375,20.84375 0 1 1 -41.6875,0 20.84375,20.84375 0 1 1 41.6875,0 z"
       transform="matrix(0.82995031,0,0,0.82995031,-26.865376,6.2804289)" />
    <path
       style="fill:#12b27d;fill-opacity:1;stroke:none"
       d="m 49.360373,33.256982 c -8.33963,0 -15.100235,6.760607 -15.100235,15.100236 0,8.33963 6.760605,15.100236 15.100235,15.100236 8.339626,0 15.100235,-6.760606 15.100235,-15.100236 0,-8.339629 -6.760609,-15.100236 -15.100235,-15.100236 z m -1.742334,3.049087 3.557266,0 c 0.495234,0 0.895367,0.306151 0.895367,0.677575 l 0,8.711674 8.711673,0 c 0.371427,0 0.677574,0.424334 0.677574,0.919565 l 0,3.557267 c 0,0.495232 -0.306147,0.895367 -0.677574,0.895367 l -8.711673,0 0,8.711675 c 0,0.371424 -0.400133,0.677574 -0.895367,0.677574 l -3.557266,0 c -0.495232,0 -0.919567,-0.30615 -0.919567,-0.677574 l 0,-8.711675 -8.711673,0 c -0.371423,0 -0.677576,-0.400135 -0.677576,-0.895367 l 0,-3.557267 c 0,-0.495231 0.306153,-0.919565 0.677576,-0.919565 l 8.711673,0 0,-8.711674 c 0,-0.371424 0.424335,-0.677575 0.919567,-0.677575 z"
       id="path3853"
       inkscape:connector-curvature="0" />
  </g>
  <g
     inkscape:groupmode="layer"
     id="layer3"
     inkscape:label="search shape"
     style="display:none">
    <path
       id="path3808"
       d="m 44.357735,32.868348 c -6.62869,0 -12.002306,5.373615 -12.002306,12.002304 0,6.628691 5.373616,12.002306 12.002306,12.002306 2.988716,0 5.717877,-1.106726 7.818808,-2.914021 l 1.125217,1.125216 -0.317369,0.34622 c -0.826681,0.826681 -0.826681,2.145043 0,2.971725 l 6.809,6.809 c 0.826681,0.82668 2.173894,0.82668 3.000577,0 l 2.22158,-2.221581 c 0.826681,-0.826681 0.826681,-2.173895 0,-3.000576 l -6.809,-6.809 c -0.82668,-0.826681 -2.145044,-0.826681 -2.971725,0 l -0.317368,0.34622 -1.182919,-1.182919 c 1.633693,-2.050453 2.625503,-4.64711 2.625503,-7.47259 0,-6.628689 -5.373615,-12.002304 -12.002304,-12.002304 z m 0,4.616271 c 4.079193,0 7.386034,3.30684 7.386034,7.386033 0,4.079195 -3.306841,7.386035 -7.386034,7.386035 -4.079194,0 -7.386035,-3.30684 -7.386035,-7.386035 0,-4.079193 3.306841,-7.386033 7.386035,-7.386033 z"
       style="fill:#a687fc;fill-opacity:1;stroke:none;display:inline"
       inkscape:connector-curvature="0" />
  </g>
  <g
     style="display:inline"
     inkscape:label="search icon"
     id="g4564"
     inkscape:groupmode="layer">
    <path
       inkscape:connector-curvature="0"
       style="fill:#efefef;fill-opacity:1;stroke:#efefef;stroke-width:2;stroke-miterlimit:4;stroke-opacity:1;stroke-dasharray:none;display:inline"
       d="m 45.095651,34.130721 c -6.62869,0 -12.002306,5.373615 -12.002306,12.002304 0,6.628691 5.373616,12.002306 12.002306,12.002306 2.988716,0 5.717877,-1.106726 7.818808,-2.914021 l 1.125217,1.125216 -0.317369,0.34622 c -0.826681,0.826681 -0.826681,2.145043 0,2.971725 l 6.809,6.809 c 0.826681,0.82668 2.173895,0.82668 3.000575,0 l 2.22158,-2.221581 c 0.82668,-0.826681 0.82668,-2.173895 0,-3.000576 l -6.808998,-6.809 c -0.82668,-0.826681 -2.145044,-0.826681 -2.971725,0 l -0.317368,0.34622 -1.182919,-1.182919 c 1.633693,-2.050453 2.625503,-4.64711 2.625503,-7.47259 0,-6.628689 -5.373615,-12.002304 -12.002304,-12.002304 z"
       id="path4676"
       sodipodi:nodetypes="ssscccsssssscccss" />
    <path
       id="path4674"
       d="m 45.095651,34.130721 c -6.62869,0 -12.002306,5.373615 -12.002306,12.002304 0,6.628691 5.373616,12.002306 12.002306,12.002306 2.988716,0 5.717877,-1.106726 7.818808,-2.914021 l 1.125217,1.125216 -0.317369,0.34622 c -0.826681,0.826681 -0.826681,2.145043 0,2.971725 l 6.809,6.809 c 0.826681,0.82668 2.173895,0.82668 3.000575,0 l 2.22158,-2.221581 c 0.82668,-0.826681 0.82668,-2.173895 0,-3.000576 l -6.808998,-6.809 c -0.82668,-0.826681 -2.145044,-0.826681 -2.971725,0 l -0.317368,0.34622 -1.182919,-1.182919 c 1.633693,-2.050453 2.625503,-4.64711 2.625503,-7.47259 0,-6.628689 -5.373615,-12.002304 -12.002304,-12.002304 z m 0,4.616271 c 4.079193,0 7.386034,3.30684 7.386034,7.386033 0,4.079195 -3.306841,7.386035 -7.386034,7.386035 -4.079194,0 -7.386035,-3.30684 -7.386035,-7.386035 0,-4.079193 3.306841,-7.386033 7.386035,-7.386033 z"
       style="fill:#3535c9;fill-opacity:1;stroke:none;display:inline"
       inkscape:connector-curvature="0" />
  </g>
</svg>
