<?xml version="1.0" encoding="UTF-8" standalone="no"?>
<!-- Created with Inkscape (http://www.inkscape.org/) -->

<svg
   width="48"
   height="48"
   id="svg2"
   version="1.1"
   inkscape:version="1.4.3 (0d15f75, 2025-12-25)"
   sodipodi:docname="ic_unlock.svg"
   inkscape:export-filename="C:\Users\sawai\Desktop\ic_unlock_dark-96.png"
   inkscape:export-xdpi="180"
   inkscape:export-ydpi="180"
   xmlns:inkscape="http://www.inkscape.org/namespaces/inkscape"
   xmlns:sodipodi="http://sodipodi.sourceforge.net/DTD/sodipodi-0.dtd"
   xmlns:xlink="http://www.w3.org/1999/xlink"
   xmlns="http://www.w3.org/2000/svg"
   xmlns:svg="http://www.w3.org/2000/svg"
   xmlns:rdf="http://www.w3.org/1999/02/22-rdf-syntax-ns#"
   xmlns:cc="http://creativecommons.org/ns#"
   xmlns:dc="http://purl.org/dc/elements/1.1/">
  <defs
     id="defs4">
    <linearGradient
       id="linearGradient3842"
       inkscape:swatch="gradient">
      <stop
         style="stop-color:#ffffff;stop-opacity:0;"
         offset="0"
         id="stop3844" />
      <stop
         style="stop-color:#ffffff;stop-opacity:1;"
         offset="1"
         id="stop3846" />
    </linearGradient>
    <linearGradient
       id="linearGradient3834"
       inkscape:swatch="gradient">
      <stop
         id="stop3836"
         offset="0"
         style="stop-color:#0000ff;stop-opacity:1;" />
      <stop
         id="stop3838"
         offset="1"
         style="stop-color:#ff00ff;stop-opacity:1;" />
    </linearGradient>
    <linearGradient
       id="linearGradient3822"
       inkscape:swatch="gradient">
      <stop
         style="stop-color:#bdde9c;stop-opacity:1;"
         offset="0"
         id="stop3824" />
      <stop
         style="stop-color:#bdde9c;stop-opacity:0;"
         offset="1"
         id="stop3826" />
    </linearGradient>
    <linearGradient
       id="linearGradient3813">
      <stop
         style="stop-color:#74af4b;stop-opacity:1;"
         offset="0"
         id="stop3815" />
      <stop
         style="stop-color:#94ca62;stop-opacity:1;"
         offset="1"
         id="stop3817" />
    </linearGradient>
    <linearGradient
       id="linearGradient3803">
      <stop
         id="stop3805"
         offset="0"
         style="stop-color:#437b19;stop-opacity:1;" />
      <stop
         id="stop3807"
         offset="1"
         style="stop-color:#62994b;stop-opacity:1;" />
    </linearGradient>
    <linearGradient
       id="linearGradient3795">
      <stop
         style="stop-color:#bdde9c;stop-opacity:1;"
         offset="0"
         id="stop3797" />
      <stop
         style="stop-color:#bdde9c;stop-opacity:0;"
         offset="1"
         id="stop3799" />
    </linearGradient>
    <linearGradient
       id="linearGradient3773">
      <stop
         id="stop3775"
         offset="0"
         style="stop-color:#549b21;stop-opacity:1;" />
      <stop
         id="stop3777"
         offset="1"
         style="stop-color:#7bc141;stop-opacity:1;" />
    </linearGradient>
    <linearGradient
       inkscape:collect="always"
       xlink:href="#linearGradient3773"
       id="linearGradient3785"
       x1="30"
       y1="60"
       x2="30"
       y2="1"
       gradientUnits="userSpaceOnUse" />
    <mask
       maskUnits="userSpaceOnUse"
       id="mask4126">
      <rect
         mask="none"
         style="fill:#ffffff;fill-opacity:1;stroke:none;display:inline"
         id="rect4128"
         width="59"
         height="58"
         x="-16"
         y="1.4196776e-006"
         ry="0" />
    </mask>
    <mask
       maskUnits="userSpaceOnUse"
       id="mask3824">
      <rect
         mask="none"
         style="opacity:0.8;fill:#ffffff;fill-opacity:1;stroke:none;display:inline"
         id="rect3826"
         width="60"
         height="60"
         x="0"
         y="6.2172489e-015"
         ry="0"
         clip-path="none" />
    </mask>
    <mask
       maskUnits="userSpaceOnUse"
       id="mask3873">
      <rect
         mask="none"
         style="fill:#ffffff;fill-opacity:1;stroke:none;display:inline"
         id="rect3875"
         width="58"
         height="60"
         x="1"
         y="6.2172489e-015"
         ry="0"
         clip-path="none" />
    </mask>
    <mask
       maskUnits="userSpaceOnUse"
       id="mask3885">
      <rect
         clip-path="none"
         ry="0"
         y="6.2172489e-015"
         x="1"
         height="60"
         width="58"
         id="rect3887"
         style="fill:#ffffff;fill-opacity:1;stroke:none;display:inline"
         mask="none" />
    </mask>
  </defs>
  <sodipodi:namedview
     id="base"
     pagecolor="#ffffff"
     bordercolor="#666666"
     borderopacity="1.0"
     inkscape:pageopacity="0.0"
     inkscape:pageshadow="2"
     inkscape:zoom="14.1875"
     inkscape:cx="12.898678"
     inkscape:cy="22.449339"
     inkscape:document-units="px"
     inkscape:current-layer="layer1"
     showgrid="false"
     showguides="false"
     inkscape:guide-bbox="true"
     inkscape:snap-global="true"
     inkscape:window-width="2560"
     inkscape:window-height="1369"
     inkscape:window-x="-8"
     inkscape:window-y="-8"
     inkscape:window-maximized="1"
     inkscape:showpageshadow="2"
     inkscape:pagecheckerboard="0"
     inkscape:deskcolor="#d1d1d1">
    <sodipodi:guide
       orientation="1,0"
       position="4,38"
       id="guide3753"
       inkscape:locked="false" />
    <inkscape:grid
       type="xygrid"
       id="grid3755"
       empspacing="5"
       visible="true"
       enabled="true"
       snapvisiblegridlinesonly="true"
       originx="0"
       originy="0"
       spacingy="1"
       spacingx="1"
       units="px" />
    <sodipodi:guide
       orientation="0,1"
       position="32,44"
       id="guide3757"
       inkscape:locked="false" />
    <sodipodi:guide
       orientation="0,1"
       position="25,4"
       id="guide3759"
       inkscape:locked="false" />
    <sodipodi:guide
       orientation="1,0"
       position="44,23"
       id="guide3761"
       inkscape:locked="false" />
    <sodipodi:guide
       orientation="0,1"
       position="41,24"
       id="guide3815"
       inkscape:locked="false" />
    <sodipodi:guide
       orientation="1,0"
       position="24,13"
       id="guide3817"
       inkscape:locked="false" />
  </sodipodi:namedview>
  <metadata
     id="metadata7">
    <rdf:RDF>
      <cc:Work
         rdf:about="">
        <dc:format>image/svg+xml</dc:format>
        <dc:type
           rdf:resource="http://purl.org/dc/dcmitype/StillImage" />
      </cc:Work>
    </rdf:RDF>
  </metadata>
  <g
     inkscape:groupmode="layer"
     id="layer4"
     inkscape:label="GRAY BG"
     style="display:none"
     transform="translate(0,-12)"
     sodipodi:insensitive="true">
    <rect
       style="fill:#7f7f7f;fill-opacity:1;stroke:none"
       id="rect3808"
       width="48"
       height="48"
       x="0"
       y="12" />
  </g>
  <g
     transform="translate(0,-12)"
     style="display:none"
     inkscape:label="BLUE BG"
     id="g3833"
     inkscape:groupmode="layer"
     sodipodi:insensitive="true">
    <rect
       y="12"
       x="0"
       height="48"
       width="48"
       id="rect3835"
       style="fill:#007fff;fill-opacity:1;stroke:none"
       inkscape:export-filename="C:\Users\sawai\Desktop\ic_home_18.png"
       inkscape:export-xdpi="33.75"
       inkscape:export-ydpi="33.75" />
  </g>
  <g
     transform="translate(0,-12)"
     style="display:none"
     inkscape:label="BLACK BG"
     id="g3794"
     inkscape:groupmode="layer"
     sodipodi:insensitive="true">
    <rect
       y="12"
       x="0"
       height="48"
       width="48"
       id="rect3796"
       style="fill:#000000;fill-opacity:1;stroke:none" />
  </g>
  <g
     inkscape:groupmode="layer"
     id="g3798"
     inkscape:label="WHITE BG"
     style="display:none"
     transform="translate(0,-12)"
     sodipodi:insensitive="true">
    <rect
       style="fill:#ffffff;fill-opacity:1;stroke:none"
       id="rect3800"
       width="48"
       height="48"
       x="0"
       y="12" />
  </g>
  <g
     style="display:none"
     inkscape:label="ic_lock_dark"
     id="g3879"
     inkscape:groupmode="layer">
    <path
       style="display:inline;opacity:0.8;fill:#ffffff;fill-opacity:1;stroke:none"
       d="m 24,4 c -4.986,0 -9,4.014 -9,9 v 2 h 3 V 14.3125 C 18,10.261375 20.676,7 24,7 c 3.324,0 6,3.261375 6,7.3125 V 19 H 13 c -1.662,0 -3,1.338 -3,3 v 19 c 0,1.662 1.338,3 3,3 h 22 c 1.662,0 3,-1.338 3,-3 V 22 c 0,-1.662 -1.338,-3 -3,-3 H 33 V 13 C 33,8.014 28.986,4 24,4 Z m 0,20 c 2.209139,0 4,1.790861 4,4 0,1.61728 -0.962675,2.994621 -2.34375,3.625 L 27,39 h -6 l 1.34375,-7.375 C 20.962675,30.994621 20,29.61728 20,28 c 0,-2.209139 1.790861,-4 4,-4 z"
       id="path3840"
       inkscape:connector-curvature="0" />
  </g>
  <g
     inkscape:groupmode="layer"
     id="layer3"
     inkscape:label="ic_lock_light"
     style="display:inline">
    <path
       style="display:inline;opacity:0.6;fill:#333333;fill-opacity:1;stroke:none"
       d="m 24,4 c -4.986,0 -9,4.014 -9,9 v 2 h 3 V 14.3125 C 18,10.261375 20.676,7 24,7 c 3.324,0 6,3.261375 6,7.3125 V 19 H 13 c -1.662,0 -3,1.338 -3,3 v 19 c 0,1.662 1.338,3 3,3 h 22 c 1.662,0 3,-1.338 3,-3 V 22 c 0,-1.662 -1.338,-3 -3,-3 H 33 V 13 C 33,8.014 28.986,4 24,4 Z m 0,20 c 2.209139,0 4,1.790861 4,4 0,1.61728 -0.962675,2.994621 -2.34375,3.625 L 27,39 h -6 l 1.34375,-7.375 C 20.962675,30.994621 20,29.61728 20,28 c 0,-2.209139 1.790861,-4 4,-4 z"
       id="rect3821"
       inkscape:connector-curvature="0" />
  </g>
  <g
     inkscape:label="#hook"
     id="g3847"
     inkscape:groupmode="layer"
     style="display:none">
    <path
       id="path3851"
       d="m 24,4 c -4.986,0 -9,4.014 -9,9 l 0,8 3,0 0,-6.6875 C 18,10.261375 20.676,7 24,7 c 3.324,0 6,3.261375 6,7.3125 L 30,21 l 3,0 0,-8 C 33,8.014 28.986,4 24,4 z"
       style="opacity:0.5;fill:#333333;fill-opacity:1;stroke:none"
       inkscape:connector-curvature="0" />
  </g>
  <g
     style="display:none"
     inkscape:groupmode="layer"
     id="g3853"
     inkscape:label="#body">
    <rect
       style="opacity:0.5;fill:#333333;fill-opacity:1;stroke:none"
       id="rect3855"
       width="28"
       height="25"
       x="10"
       y="19"
       ry="3" />
  </g>
  <g
     inkscape:groupmode="layer"
     id="layer1"
     inkscape:label="#hole"
     style="display:none">
    <path
       style="opacity:0.5;fill:#333333;fill-opacity:1;stroke:none"
       d="m 24,24 c -2.209139,0 -4,1.790861 -4,4 0,1.61728 0.962675,2.994621 2.34375,3.625 L 21,39 h 6 L 25.65625,31.625 C 27.037325,30.994621 28,29.61728 28,28 28,25.790861 26.209139,24 24,24 Z"
       id="path3828"
       inkscape:connector-curvature="0" />
  </g>
</svg>
